PathFileType	4	(X/Y/Z)	Kaydara	
DataRate	CameraRate	NumFrames	NumMarkers	Units	OrigDataRate	OrigDataStartFrame	OrigNumFrames	
240.00	240.00	4	72	mm	240.00	270	359	
Frame#	Time	Hips			RightUpLeg			RightLeg			RightFoot			RightFoot_End			LeftUpLeg			LeftLeg			LeftFoot			LeftFoot_End			Spine			Spine1			Spine2			Spine3			Neck			Head			Head_End			RightShoulder			RightArm			RightForeArm			RightHand			RightHandThumb1			RightHandThumb2			RightHandThumb3			RightHandThumb3_End			RightInHandIndex			RightHandIndex1			RightHandIndex2			RightHandIndex3			RightHandIndex3_End			RightInHandMiddle			RightHandMiddle1			RightHandMiddle2			RightHandMiddle3			RightHandMiddle3_End			RightInHandRing			RightHandRing1			RightHandRing2			RightHandRing3			RightHandRing3_End			RightInHandPinky			RightHandPinky1			RightHandPinky2			RightHandPinky3			RightHandPinky3_End			LeftShoulder			LeftArm			LeftForeArm			LeftHand			LeftHandThumb1			LeftHandThumb2			LeftHandThumb3			LeftHandThumb3_End			LeftInHandIndex			LeftHandIndex1			LeftHandIndex2			LeftHandIndex3			LeftHandIndex3_End			LeftInHandMiddle			LeftHandMiddle1			LeftHandMiddle2			LeftHandMiddle3			LeftHandMiddle3_End			LeftInHandRing			LeftHandRing1			LeftHandRing2			LeftHandRing3			LeftHandRing3_End			LeftInHandPinky			LeftHandPinky1			LeftHandPinky2			LeftHandPinky3			LeftHandPinky3_End			
		X1	Y1	Z1	X2	Y2	Z2	X3	Y3	Z3	X4	Y4	Z4	X5	Y5	Z5	X6	Y6	Z6	X7	Y7	Z7	X8	Y8	Z8	X9	Y9	Z9	X10	Y10	Z10	X11	Y11	Z11	X12	Y12	Z12	X13	Y13	Z13	X14	Y14	Z14	X15	Y15	Z15	X16	Y16	Z16	X17	Y17	Z17	X18	Y18	Z18	X19	Y19	Z19	X20	Y20	Z20	X21	Y21	Z21	X22	Y22	Z22	X23	Y23	Z23	X24	Y24	Z24	X25	Y25	Z25	X26	Y26	Z26	X27	Y27	Z27	X28	Y28	Z28	X29	Y29	Z29	X30	Y30	Z30	X31	Y31	Z31	X32	Y32	Z32	X33	Y33	Z33	X34	Y34	Z34	X35	Y35	Z35	X36	Y36	Z36	X37	Y37	Z37	X38	Y38	Z38	X39	Y39	Z39	X40	Y40	Z40	X41	Y41	Z41	X42	Y42	Z42	X43	Y43	Z43	X44	Y44	Z44	X45	Y45	Z45	X46	Y46	Z46	X47	Y47	Z47	X48	Y48	Z48	X49	Y49	Z49	X50	Y50	Z50	X51	Y51	Z51	X52	Y52	Z52	X53	Y53	Z53	X54	Y54	Z54	X55	Y55	Z55	X56	Y56	Z56	X57	Y57	Z57	X58	Y58	Z58	X59	Y59	Z59	X60	Y60	Z60	X61	Y61	Z61	X62	Y62	Z62	X63	Y63	Z63	X64	Y64	Z64	X65	Y65	Z65	X66	Y66	Z66	X67	Y67	Z67	X68	Y68	Z68	X69	Y69	Z69	X70	Y70	Z70	X71	Y71	Z71	X72	Y72	Z72	

270	1.121	5198.941	914.58397	126.699	5244.455279230711	887.5796066548518	50.709584183993485	5148.365733094041	493.3474459509296	-53.200638623613294	5142.482093318475	102.33167788803249	-131.47889491280222	4991.380804177531	25.496633743008495	-43.14339217244554	5166.599322407743	915.0735048212925	214.55341158275374	5075.727406149226	512.3178724156251	284.69071277406437	4993.8661075730315	86.87912080758596	359.78462606730835	4873.25193296752	3.7758802431385825	236.97198540933428	5137.79551263975	1034.05913959211	77.19837481715277	5078.484164134894	1090.6796928070553	25.061966114091984	5013.628828532156	1142.7154130239296	-32.62852717947882	4947.422884571614	1181.589784812819	-92.20588103818012	4875.433855655584	1223.462724897437	-154.20748540757896	4808.362451579764	1262.2756816786386	-208.13140363769557	4672.269303377032	1343.315499396871	-224.40890248304	4913.236329664278	1198.4661640104807	-157.0627301379145	4933.775872940082	1127.2922928394407	-244.48769579772977	4921.052322397508	937.3590897976675	-133.1948063269711	4844.467177209682	806.3165406212881	-132.44359174417443	4841.177872217532	810.297478186603	-143.33907910041108	4827.625091117363	807.5443467408039	-144.70987216328083	4818.13917139713	803.004761746174	-143.92669239849207	4810.190313491844	796.9769962004359	-141.78714180823195	4841.6797597570885	801.0836332969083	-138.66045088330435	4833.020008986037	784.1343902066824	-139.32821621184635	4821.786262930901	773.2946742524533	-136.84823837769534	4812.654761527091	770.5312872962695	-135.05387328119699	4803.648074948435	770.9257419117201	-133.39831831293355	4841.603751116805	794.5867325798125	-133.7707015894929	4833.117662725386	774.540501276085	-131.7779971562781	4820.870968685694	761.9111308137681	-128.42080945445213	4809.859689648414	758.1928058093997	-125.94356237023197	4800.007434041725	758.4375375635465	-123.98020677306617	4841.821875952014	790.3989723233386	-130.31772629962433	4834.554738829403	768.7098691791894	-125.58906564162928	4823.9050973538715	756.9152040169957	-122.00043928886348	4813.296915971672	752.9107247829405	-119.25911653598448	4804.039505657237	752.9428286164925	-117.24634727028824	4841.923653556208	786.3014136383838	-126.17154217841926	4835.488826283984	763.7753057286556	-119.34120750434035	4827.03071540651	753.1977917187442	-115.45449104756415	4819.326794199632	749.7289437534814	-112.96489778669631	4811.145647122517	749.442020771117	-110.89987745004476	4885.653112986802	1221.1090946185036	-109.14143791179629	4856.353678829651	1231.0436287486352	-1.315263452632791	4903.659300358591	1028.1213065758284	-30.548104606338313	4882.090645010388	847.5269513571396	-76.85155281570702	4885.68277003311	849.0484979739757	-91.55191807122111	4898.533662363077	837.128600127281	-100.4908860600604	4907.182856187411	826.1971695139583	-105.08781214281464	4914.136530624079	814.8338610695049	-107.52721528127576	4883.944996355996	840.2196823998104	-87.33848679465581	4889.959458772872	817.2991461528964	-96.13816034584461	4899.4401789766325	798.8867612460195	-100.79620816780773	4908.018721017493	790.0096810772371	-103.53107796671884	4916.929876498498	784.3955961304846	-105.6861044226344	4883.170942841489	833.7461362785646	-82.53417908407091	4888.61707386905	807.8892918076006	-88.51887972608682	4898.847394595277	787.0148176011418	-92.9374452358758	4909.141897408214	775.9292689834015	-95.91819072102527	4918.865486174326	769.6038084432005	-98.12121356529843	4882.416061038593	829.7607122001543	-78.92137121831615	4886.482039770038	803.1376688980192	-81.16620587867124	4895.273275375538	784.183912097338	-84.32897249278113	4905.136471019678	773.0876918069713	-86.83851904683264	4914.247504519656	766.9490416313924	-88.7366534553232	4881.801367215276	825.8057833595822	-74.45529197033996	4884.970659042102	798.9525667165689	-73.78386021943322	4891.79714914215	782.7062904402407	-75.23256041171993	4898.8882727307855	774.0956398330388	-76.538701464307	4906.899814139132	768.3602466663162	-77.91838234615031
271	1.125	5198.941	914.58397	126.699	5244.4363034715325	887.5142263915319	50.720080223682515	5148.337984473081	493.274084066815	-53.148889319689694	5142.518231854933	102.25201785807502	-131.40912042461028	4991.42064129912	25.414607421936527	-43.069241612370455	5166.609485104965	915.14123585544	214.5580677232128	5075.653353941765	512.3992137088392	284.6624474604667	4993.74637479441	86.9661582905143	359.73842286493493	4873.132369452536	3.8643587032230675	236.92463057927586	5137.835671739611	1034.0517248348162	77.1303646805954	5078.532399184286	1090.6219711179015	24.931823736450085	5013.689754720379	1142.6087609849571	-32.81561647098842	4947.510830927232	1181.463964642545	-92.43494629512004	4875.549975082424	1223.3198958501685	-154.4800895955607	4808.5059765727665	1262.124504539294	-208.44366180710773	4672.501287291728	1343.29714658521	-224.79443733156	4913.283787141229	1198.222164727009	-157.29199215018966	4933.399853671301	1126.5252281217763	-244.28483303145558	4919.736809160691	936.8423742843669	-132.30474256519173	4843.777123630678	805.8602805024505	-128.1278004981525	4839.65532103379	809.5221724734438	-138.09764580556833	4826.13514113173	806.9276696378276	-138.33633449448703	4816.806707244618	802.5507781489322	-136.8115309576744	4809.104441076005	796.7033198957688	-134.09373461439233	4840.5085045585665	800.4302277285361	-133.52281603026785	4831.853567297054	783.5294895627231	-133.016855791139	4820.919531815887	772.9160307655508	-129.60762375022912	4812.026867759255	770.3526676266011	-127.22678928996035	4803.253284494045	770.9527216929359	-125.07991015372365	4840.813001096027	794.0828308718075	-128.7957911861252	4832.537338544494	774.1647215523268	-125.74631996184172	4820.668249828054	761.8020526333096	-121.40026892742912	4809.96938212477	758.3345551037395	-118.22753105259766	4800.3839791309565	758.8088715054422	-115.73244202742461	4841.297702763597	789.9978537369965	-125.48894640689409	4834.444333675049	768.5081049942653	-119.94361587633313	4824.175185067607	756.9659611915672	-115.52043790553834	4813.895630313606	753.2140801302838	-112.1227810564897	4804.902056483581	753.4671003691373	-109.61693011925155	4841.72334261445	786.0299857829256	-121.53562569767446	4835.860544499899	763.7613129862574	-114.07884060548696	4827.785473784539	753.4164524679429	-109.57006048614139	4820.359157382865	750.1465773392014	-106.62408990558933	4812.433540296449	750.0638258144061	-104.13514520136343	4885.821631545414	1221.0812700254933	-109.43049527945585	4856.740339415674	1231.8936494651355	-1.6779711854049064	4902.917932912929	1028.4977041293387	-29.11735930520885	4882.740582364327	847.5063446567655	-74.02749906774248	4885.537842481579	848.4700461603696	-88.59703432901199	4898.136679439257	836.314858605328	-98.03276550459452	4906.749777842036	825.2790624974914	-102.9895727450736	4913.792645245338	813.8796413071633	-105.74091445355913	4884.2068979435135	839.7814150163595	-84.35983191088361	4890.232499114077	816.5380375472351	-93.24225351733236	4899.828250861756	798.0179153298126	-98.28757531023004	4908.422746871505	789.1146285265887	-101.42640799234621	4917.309629588253	783.5063554650276	-104.02587427566795	4883.816799722917	833.4864672484591	-79.60621610343681	4889.481446051138	807.4113035502771	-85.69895207923472	4899.888048944971	786.4440254605317	-90.54694258566012	4910.2261574714885	775.3387406116307	-94.0183333432368	4919.935028840684	769.0254151773108	-96.70924808479077	4883.332722360724	829.6345985302307	-76.02387042643328	4887.829098580562	802.9293096114687	-78.38248997877628	4896.825521900401	783.9203242335841	-81.92639373357771	4906.75814887355	772.8186937887014	-84.91284399431119	4915.868314350497	766.6979111636684	-87.27144351477338	4883.031206098527	825.849748223591	-71.61602744906607	4886.787743122527	799.0229503467281	-71.0740156703448	4893.857071435571	782.7728461245765	-72.83812879073827	4901.036826970395	774.1777906412535	-74.49706549151459	4909.069462109896	768.46947167046	-76.28748669477265
272	1.129	5198.941	914.58397	126.699	5244.420742069962	887.4502011391951	50.732058452398796	5148.310817986408	493.2021941960436	-53.09360490948675	5142.554609062982	102.17373015392292	-131.33560122797667	4991.460730510946	25.333738442907798	-42.99151312554356	5166.616673913909	915.2080466733977	214.56168062558194	5075.574257630445	512.4797012328924	284.63092173775584	4993.625869631426	87.05238272875809	359.69414593354986	4873.012006000504	3.9518580053486394	236.87933645133083	5137.873712291068	1034.0422989089523	77.0603186687261	5078.576666986774	1090.5607302164806	24.800357440820118	5013.744698171426	1142.4971504066932	-33.002875645069615	4947.590870541834	1181.3319723495092	-92.66276628294958	4875.6564575417	1223.1696767510548	-154.7501975620939	4808.638616336019	1261.9648758034673	-208.7525945802748	4672.725657434123	1343.2722668708989	-225.18742704756414	4913.321318856876	1197.97190401125	-157.5179520673303	4933.010208871066	1125.7670505646631	-244.07621252316514	4918.440944993442	936.3403272100614	-131.4193534631495	4843.160125769299	805.4398223692674	-123.9098257066286	4838.22519297864	808.8191165083302	-132.9248003641017	4824.775612865399	806.3993290491343	-132.03524806151225	4815.630150435216	802.1921073742402	-129.77803811707548	4808.194886805664	796.5271565852468	-126.49526374026648	4839.426041698777	799.8385000979778	-128.47290254288927	4830.804605246555	783.0047869287082	-126.80884958754103	4820.200429487835	772.6238761449782	-122.48969259966113	4811.569506891109	770.262832359808	-119.53251438121325	4803.050790985076	771.0692961912197	-116.90141623500168	4840.107872864949	793.6281534710017	-123.92621182249867	4832.068899028968	773.849495765699	-119.84474427530478	4820.609815671755	761.7586814269736	-114.53320539022326	4810.250752978094	758.5439595270262	-110.67828862438657	4800.955900075859	759.2483479359548	-107.6597731802743	4840.856075213809	789.63673142007	-120.77749983196449	4834.4370360516605	768.3486060136644	-114.44800045705169	4824.576070369666	757.0617072699448	-109.21294029567818	4814.651273579904	753.5633647839609	-105.17300865537511	4805.943679446332	754.0373148032797	-102.18246434763495	4841.602020844218	785.7870427278555	-117.0307382312383	4836.327578538572	763.7709397467937	-108.98562655601268	4828.65677429787	753.6581457314049	-103.87637506403019	4821.526664976134	750.5865903777152	-100.48594585929023	4813.875929563945	750.7072515675491	-97.58146497941007	4885.981969018733	1221.0457031061142	-109.71873923809903	4857.121363581829	1232.7295506169091	-2.0505676014538152	4902.201590948935	1028.876341716389	-27.698882580103394	4883.393529951635	847.5177946794166	-71.34320254429362	4885.388054320478	847.946377831114	-85.75555859751475	4897.706905023728	835.5579304430224	-95.68664657211556	4906.2640560208	824.4164824666985	-101.00823270781905	4913.37922367606	812.9775663855459	-104.08062375458755	4884.463548180439	839.3919047380608	-81.51230813887545	4890.478514405841	815.8344069198856	-90.49011027697257	4900.164698273628	797.2042452841443	-95.93645065098869	4908.756685430158	788.2702484384322	-99.48474261852806	4917.601875878244	782.6619874951236	-102.53114171123028	4884.456623626782	833.2675104046007	-76.8251648927839	4890.31812775602	806.9781844538235	-83.046791892522	4900.874125647102	785.9144901745884	-88.34125293666297	4911.233543906463	774.7835078986427	-92.31090266497935	4920.908627441586	768.4757149079452	-95.49291470006355	4884.243443090706	829.543359856814	-73.28409871439831	4889.151147857961	802.7546858199014	-75.78455681576284	4898.329311793342	783.6861914766362	-79.7265145920237	4908.309857398094	772.5727997381243	-83.19830650687106	4917.4012207737105	766.4633916446575	-86.02090341244178	4884.255140780388	825.9210635367185	-68.94666735078627	4888.581747035722	799.11523505096	-68.56728489718161	4895.875201560628	782.8561138973279	-70.66344879813028	4903.127928334368	774.2711689399125	-72.68283125834103	4911.165788218766	768.5836820320533	-74.88798243282613
273	1.133	5198.941	914.58397	126.699	5244.408340818931	887.3874559237601	50.745394974974936	5148.283790048501	493.1318475665592	-53.035302819912914	5142.590982095205	102.09692235051683	-131.25899634955323	4991.5008204025635	25.254131508685926	-42.910883419357845	5166.621142574007	915.273996405856	214.56433803198843	5075.490845737904	512.5592932273528	284.5962688679886	4993.505270972767	87.13770317787565	359.6516253780312	4872.891552047751	4.0382527274177935	236.83592659681148	5137.909647801206	1034.0309363426509	76.9884046037815	5078.616909732905	1090.496192205178	24.66796768862523	5013.793486908899	1142.3809626140962	-33.18964079867331	4947.662621810286	1181.1942871523122	-92.88838502932505	4875.75270744301	1223.012625779094	-155.01655717625925	4808.7595945288795	1261.797404987822	-209.05669377226818	4672.94141901747	1343.2409760848304	-225.5866359158659	4913.348261426814	1197.7158300166816	-157.73952398856207	4932.606327049771	1125.0185307781067	-243.86159962817786	4917.166919394058	935.8563404252101	-130.5350361326953	4842.609904440095	805.0574025249233	-119.79647654333317	4836.885807505521	808.1922891037399	-127.8309541640915	4823.5454244422335	805.9617960932993	-125.82221534467877	4814.607999717349	801.9298306108957	-122.84519173052496	4807.459084390364	796.4481378962086	-119.01331588192974	4838.428308358357	799.3116132953406	-123.52040987106531	4829.868506489454	782.5625481712476	-120.71821852780792	4819.622919827557	772.4185544915517	-115.51245155141856	4811.275916434585	770.2605651635308	-111.99193005011512	4803.033336150867	771.2727108483657	-108.88636534325353	4839.481999121619	793.224908148301	-119.17090708528056	4831.704190783571	773.5956405034416	-114.08601959553101	4820.685659997129	761.7796120154791	-107.83660500149388	4810.692773979517	758.8176714374068	-103.31623567009254	4801.711555353972	759.7509070148105	-99.78547118215403	4840.489016937201	789.3171720163397	-116.19167522527547	4834.521886531229	768.2311670795733	-109.11331922374461	4825.094871386643	757.2001751749032	-103.09261809149581	4815.549814778182	753.9543714000666	-98.4277002469772	4807.14968951524	754.6476231150257	-94.96351931277718	4841.549834561548	785.573353295409	-112.66437221085002	4836.876197665995	763.8028737565655	-104.07111101697424	4829.628880000179	753.919720123623	-98.38563980744654	4822.812516059641	751.0443252918712	-94.56492899462506	4815.455304682143	751.3661340414537	-91.25560803779913	4886.133745812503	1221.0030114575086	-110.00494971674455	4857.496647509578	1233.550523527747	-2.4313297512199354	4901.512925056751	1029.2568387403187	-26.293745295369778	4884.037661127377	847.5601095499962	-68.80051527223937	4885.224320724897	847.4795661202417	-83.02919351483723	4897.234807748138	834.8614856409965	-93.45111870161985	4905.715098837292	823.6138261339294	-99.14010107741554	4912.884148703286	812.132309192085	-102.54065504460578	4884.703534594827	839.0522351463525	-78.79746237073458	4890.683478457057	815.1909865826344	-87.88126505924257	4900.433100763193	796.4491380201594	-93.73957538798922	4909.00312530138	787.4802501762094	-97.7005696840222	4917.788719398357	781.8664114721878	-101.19418086334827	4885.0770270607945	833.0892204423311	-74.19227058824733	4891.110114023881	806.5908868614405	-80.56151858817944	4901.7857542903885	785.4277234667255	-86.31641270598253	4912.142869437848	774.265397254726	-90.78919969876972	4921.764505503118	767.9567275614755	-94.46308405658354	4885.1335075054185	829.4861140572491	-70.70315238934145	4890.429078141064	802.6130913016149	-73.37150649377368	4899.762785321688	783.481135218526	-77.72571541701836	4909.768332427647	772.349849646578	-81.6886311074966	4918.822342028359	766.2454647685546	-84.97646431057808	4885.456997074469	826.0178127762757	-66.44809228656709	4890.331568120578	799.2270379078723	-66.2626276251172	4897.827859408751	782.9537228581756	-68.7052600354256	4905.136690849785	774.3734421887581	-71.09078076074819	4913.163254969789	768.7006010482199	-73.71260825097116
